<svg width="81" height="81" viewBox="0 0 81 81" fill="none" xmlns="http://www.w3.org/2000/svg">
<path d="M30.6042 58.3126L58.3126 40.5001L30.6042 22.6876V58.3126ZM40.5001 80.0834C35.0244 80.0834 29.8786 79.0437 25.0626 76.9642C20.2466 74.8848 16.0574 72.0652 12.4949 68.5053C8.93237 64.9428 6.11272 60.7536 4.03592 55.9376C1.95911 51.1216 0.919387 45.9758 0.916748 40.5001C0.916748 35.0244 1.95647 29.8786 4.03592 25.0626C6.11536 20.2466 8.93501 16.0574 12.4949 12.4949C16.0574 8.93237 20.2466 6.11272 25.0626 4.03592C29.8786 1.95911 35.0244 0.919387 40.5001 0.916748C45.9758 0.916748 51.1216 1.95647 55.9376 4.03592C60.7536 6.11536 64.9428 8.93501 68.5053 12.4949C72.0678 16.0574 74.8888 20.2466 76.9682 25.0626C79.0476 29.8786 80.0861 35.0244 80.0834 40.5001C80.0834 45.9758 79.0437 51.1216 76.9642 55.9376C74.8848 60.7536 72.0652 64.9428 68.5053 68.5053C64.9428 72.0678 60.7536 74.8888 55.9376 76.9682C51.1216 79.0476 45.9758 80.0861 40.5001 80.0834Z" fill="#BDBDBD" fill-opacity="0.87"/>
</svg>
